Coordinates
version=1
nRows=16
nColumns=22
inDegrees=yes

Units are S.I. units (second, meters, Newtons, ...)
If the header above contains a line with 'inDegrees', this indicates whether rotational values are in degrees (yes) or radians (no).

endheader
time	pelvis_tilt	pelvis_list	pelvis_rotation	pelvis_tx	pelvis_ty	pelvis_tz	hip_flexion_r	hip_adduction_r	hip_rotation_r	knee_angle_r	ankle_angle_r	subtalar_angle_r	hip_flexion_l	hip_adduction_l	hip_rotation_l	knee_angle_l	ankle_angle_l	subtalar_angle_l	lumbar_extension	lumbar_bending	lumbar_rotation
      1.74000000	     -4.67943090	     -4.36512165	      4.58588178	      0.53233592	      0.92773141	      1.01539202	      7.66169661	     -3.79286515	      5.49833282	    -54.09219006	     -5.60138070	     11.01141048	     30.62953016	     -0.51365119	     -5.67793396	    -30.53448917	      2.95279517	    -12.73639250	     -5.09831502	      2.45289736	      3.72239288
      1.75000000	     -4.44679773	     -4.21578693	      5.60778082	      0.54075717	      0.92866563	      1.00861876	      9.17667626	     -3.46059976	      5.83365221	    -56.96727986	     -5.21991848	     10.75779239	     29.66684594	      0.37905671	     -5.14560604	    -30.24272387	      3.47270702	    -13.02494977	     -5.28697329	      2.25211540	      2.95838568
      1.76000000	     -4.18929558	     -4.07126132	      6.72373275	      0.54914737	      0.92965478	      1.00170732	     10.62401212	     -3.11141231	      6.01274135	    -59.59617759	     -4.55227514	     10.51635537	     28.63257306	      1.27882546	     -4.51768371	    -29.88700122	      3.96017301	    -13.29633023	     -5.48494079	      2.08060762	      2.13833225
      1.77000000	     -3.91739429	     -3.92358485	      7.92276392	      0.55748344	      0.93067742	      0.99460418	     12.01911878	     -2.78077772	      6.05090736	    -61.96967171	     -3.66696540	     10.30160315	     27.54189481	      2.18413029	     -3.82274012	    -29.48407449	      4.43074168	    -13.54935017	     -5.68532163	      1.93827846	      1.27638234
      1.78000000	     -3.66223327	     -3.78069721	      9.18522865	      0.56575970	      0.93173194	      0.98731506	     13.39514837	     -2.46798616	      5.99290982	    -64.07214309	     -2.67368915	     10.06191186	     26.39792046	      3.09301902	     -3.01358630	    -28.98294442	      4.80947887	    -13.80073498	     -5.84686927	      1.82821520	      0.39788581
      1.79000000	     -3.41357903	     -3.64228166	     10.50222443	      0.57397945	      0.93281864	      0.97983830	     14.74115617	     -2.18892313	      5.84662568	    -65.89985351	     -1.65146770	      9.69006927	     25.19160650	      3.99566749	     -2.08975392	    -28.39715640	      5.09802280	    -14.10805812	     -5.97956996	      1.74877385	     -0.47906731
      1.80000000	     -3.18050382	     -3.48521986	     11.83902168	      0.58214471	      0.93390960	      0.97221762	     16.06084930	     -1.96272416	      5.68895692	    -67.45750463	     -0.54484178	      9.38613844	     23.93189133	      4.87703259	     -1.18568748	    -27.73243335	      5.38559486	    -14.33242523	     -6.07997501	      1.67107881	     -1.36026232
      1.81000000	     -2.92916032	     -3.32261295	     13.19029359	      0.59020741	      0.93502955	      0.96448739	     17.32338580	     -1.76496719	      5.52791193	    -68.74695161	      0.52313575	      8.78654416	     22.59864234	      5.72760466	     -0.21426643	    -27.01742309	      5.63912113	    -14.64527449	     -6.19887598	      1.61032922	     -2.18887495
      1.82000000	     -2.70344865	     -3.14655525	     14.53469406	      0.59816266	      0.93610807	      0.95669662	     18.57265704	     -1.60230312	      5.41384270	    -69.77859904	      1.61272227	      8.20366587	     21.23615861	      6.54683568	      0.77503146	    -26.24363845	      5.84129251	    -14.87353082	     -6.28635424	      1.54285129	     -2.97741962
      1.83000000	     -2.48463928	     -2.96732857	     15.87314215	      0.60597460	      0.93715303	      0.94888118	     19.78691616	     -1.45207411	      5.35547327	    -70.55028489	      2.67164724	      7.61492373	     19.84155178	      7.32333148	      1.81704453	    -25.43483270	      5.98750203	    -15.07177533	     -6.37375585	      1.47976311	     -3.71905220
      1.84000000	     -2.25541898	     -2.78042114	     17.17737164	      0.61371420	      0.93814857	      0.94111135	     20.93666455	     -1.30718191	      5.36137847	    -71.06309760	      3.73064732	      6.78440650	     18.40785554	      8.03078641	      2.81135506	    -24.61249069	      6.16556379	    -15.30838176	     -6.47469610	      1.41374350	     -4.40459724
      1.85000000	     -2.03319295	     -2.59823281	     18.46176852	      0.62129062	      0.93906654	      0.93340227	     22.04603945	     -1.14937024	      5.43988183	    -71.32252175	      4.75025290	      5.97083365	     16.97447612	      8.68137806	      3.84763172	    -23.79828114	      6.29863680	    -15.51099616	     -6.58393696	      1.35109566	     -5.03802568
      1.86000000	     -1.80709356	     -2.42223786	     19.72133142	      0.62872835	      0.93989534	      0.92578331	     23.09604216	     -0.97098053	      5.58397072	    -71.32937554	      5.71652869	      5.13667640	     15.54131776	      9.26493841	      4.89456615	    -23.00771838	      6.42556645	    -15.71060552	     -6.71229425	      1.29387530	     -5.62239322
      1.87000000	     -1.57966964	     -2.26256822	     20.97212862	      0.63600654	      0.94062156	      0.91824756	     24.08826274	     -0.76321673	      5.77973984	    -71.08682160	      6.58695748	      4.41504542	     14.12534861	      9.78277882	      5.99669654	    -22.25799043	      6.52331303	    -15.88893235	     -6.85606944	      1.25311009	     -6.17861618
      1.88000000	     -1.35266943	     -2.10172117	     22.19272180	      0.64319536	      0.94122326	      0.91083704	     25.00922049	     -0.54089686	      6.02600149	    -70.59737242	      7.39362998	      3.55054438	     12.72514118	     10.23624091	      7.04714297	    -21.54869512	      6.67907879	    -16.11568294	     -7.01623312	      1.20012650	     -6.68341842
      1.89000000	     -1.12924265	     -1.97067216	     23.42404327	      0.65021927	      0.94170412	      0.90349138	     25.87273148	     -0.28159822	      6.30001959	    -69.86706206	      8.04566468	      2.94881646	     11.36237465	     10.62412263	      8.19055089	    -20.89598253	      6.79443519	    -16.31177692	     -7.18202351	      1.17902954	     -7.18321117
